<svg width="40" height="40" viewBox="0 0 40 40" fill="none" xmlns="http://www.w3.org/2000/svg">
<path d="M34.1422 5.85781C30.3647 2.08031 25.3422 0 20 0C14.6578 0 9.63531 2.08031 5.85781 5.85781C2.08031 9.63531 0 14.6578 0 20C0 25.3422 2.08039 30.3646 5.85781 34.1422C9.63523 37.9198 14.6578 40 20 40C25.3422 40 30.3647 37.9197 34.1422 34.1422C37.9197 30.3647 40 25.3422 40 20C40 14.6578 37.9196 9.63539 34.1422 5.85781Z" fill="#33CC95"/>
<path d="M16.7421 16.6819C15.669 17.5937 15.2758 19.2567 16.2024 20.5908C17.0695 21.8392 18.1618 22.9313 19.4099 23.798C20.7441 24.7244 22.407 24.3311 23.3187 23.2579L23.3289 23.2626C24.4934 23.8021 25.7304 24.1718 27 24.3603V27L26.9989 27L26.9961 27C19.0215 27.0113 12.9915 20.9111 13 13.0036V13H15.6394L15.6395 13.0012C15.828 14.2706 16.1976 15.5065 16.7371 16.6711L16.7421 16.6819ZM26.9989 29H28C28.5523 29 29 28.5523 29 28V23.4977C29 23.0021 28.637 22.5813 28.1468 22.5086L27.2926 22.3818C26.2123 22.2215 25.1605 21.9069 24.1695 21.4478L23.4166 21.0991C22.9804 20.897 22.462 21.034 22.1826 21.4253L21.8418 21.9024C21.5431 22.3206 20.9728 22.4484 20.5506 22.1552C19.4984 21.4245 18.5761 20.5024 17.845 19.4499C17.5518 19.0277 17.6796 18.4574 18.0978 18.1587L18.5748 17.8181C18.9661 17.5386 19.1031 17.0202 18.901 16.5839L18.5518 15.8303C18.0927 14.8394 17.7782 13.7877 17.6179 12.7075L17.491 11.8532C17.4183 11.363 16.9974 11 16.5019 11H12C11.4477 11 11 11.4477 11 12V13.0014C10.9903 22.0079 17.9102 29.0129 26.9989 29Z" fill="white"/>
</svg>
