<svg width="222" height="40" viewBox="0 0 222 40" fill="none" xmlns="http://www.w3.org/2000/svg">
<path d="M67.1291 15.96V18.7H63.4091V30H59.9891V18.7H56.2691V15.96H67.1291ZM79.3655 24.24C79.3655 24.56 79.3455 24.8933 79.3055 25.24H71.5655C71.6188 25.9333 71.8388 26.4667 72.2255 26.84C72.6255 27.2 73.1121 27.38 73.6855 27.38C74.5388 27.38 75.1321 27.02 75.4655 26.3H79.1055C78.9188 27.0333 78.5788 27.6933 78.0855 28.28C77.6055 28.8667 76.9988 29.3267 76.2655 29.66C75.5321 29.9933 74.7121 30.16 73.8055 30.16C72.7121 30.16 71.7388 29.9267 70.8855 29.46C70.0321 28.9933 69.3655 28.3267 68.8855 27.46C68.4055 26.5933 68.1655 25.58 68.1655 24.42C68.1655 23.26 68.3988 22.2467 68.8655 21.38C69.3455 20.5133 70.0121 19.8467 70.8655 19.38C71.7188 18.9133 72.6988 18.68 73.8055 18.68C74.8855 18.68 75.8455 18.9067 76.6855 19.36C77.5255 19.8133 78.1788 20.46 78.6455 21.3C79.1255 22.14 79.3655 23.12 79.3655 24.24ZM75.8655 23.34C75.8655 22.7533 75.6655 22.2867 75.2655 21.94C74.8655 21.5933 74.3655 21.42 73.7655 21.42C73.1921 21.42 72.7055 21.5867 72.3055 21.92C71.9188 22.2533 71.6788 22.7267 71.5855 23.34H75.8655ZM84.5897 15.2V30H81.1697V15.2H84.5897ZM90.2681 27.18H95.1081V30H86.4481V27.28L91.0881 21.66H86.4881V18.84H95.0081V21.56L90.2681 27.18ZM98.71 17.68C98.11 17.68 97.6167 17.5067 97.23 17.16C96.8567 16.8 96.67 16.36 96.67 15.84C96.67 15.3067 96.8567 14.8667 97.23 14.52C97.6167 14.16 98.11 13.98 98.71 13.98C99.2967 13.98 99.7767 14.16 100.15 14.52C100.537 14.8667 100.73 15.3067 100.73 15.84C100.73 16.36 100.537 16.8 100.15 17.16C99.7767 17.5067 99.2967 17.68 98.71 17.68ZM100.41 18.84V30H96.99V18.84H100.41ZM106.308 20.7C106.708 20.0867 107.208 19.6067 107.808 19.26C108.408 18.9 109.075 18.72 109.808 18.72V22.34H108.868C108.015 22.34 107.375 22.5267 106.948 22.9C106.522 23.26 106.308 23.9 106.308 24.82V30H102.888V18.84H106.308V20.7ZM124.281 21.56V24.4H115.481V21.56H124.281ZM140.661 15.96V18.7H134.941V21.66H139.221V24.32H134.941V30H131.521V15.96H140.661ZM141.779 24.4C141.779 23.2533 141.992 22.2467 142.419 21.38C142.859 20.5133 143.452 19.8467 144.199 19.38C144.945 18.9133 145.779 18.68 146.699 18.68C147.485 18.68 148.172 18.84 148.759 19.16C149.359 19.48 149.819 19.9 150.139 20.42V18.84H153.559V30H150.139V28.42C149.805 28.94 149.339 29.36 148.739 29.68C148.152 30 147.465 30.16 146.679 30.16C145.772 30.16 144.945 29.9267 144.199 29.46C143.452 28.98 142.859 28.3067 142.419 27.44C141.992 26.56 141.779 25.5467 141.779 24.4ZM150.139 24.42C150.139 23.5667 149.899 22.8933 149.419 22.4C148.952 21.9067 148.379 21.66 147.699 21.66C147.019 21.66 146.439 21.9067 145.959 22.4C145.492 22.88 145.259 23.5467 145.259 24.4C145.259 25.2533 145.492 25.9333 145.959 26.44C146.439 26.9333 147.019 27.18 147.699 27.18C148.379 27.18 148.952 26.9333 149.419 26.44C149.899 25.9467 150.139 25.2733 150.139 24.42ZM159.453 15.2V30H156.033V15.2H159.453ZM172.451 24.24C172.451 24.56 172.431 24.8933 172.391 25.24H164.651C164.705 25.9333 164.925 26.4667 165.311 26.84C165.711 27.2 166.198 27.38 166.771 27.38C167.625 27.38 168.218 27.02 168.551 26.3H172.191C172.005 27.0333 171.665 27.6933 171.171 28.28C170.691 28.8667 170.085 29.3267 169.351 29.66C168.618 29.9933 167.798 30.16 166.891 30.16C165.798 30.16 164.825 29.9267 163.971 29.46C163.118 28.9933 162.451 28.3267 161.971 27.46C161.491 26.5933 161.251 25.58 161.251 24.42C161.251 23.26 161.485 22.2467 161.951 21.38C162.431 20.5133 163.098 19.8467 163.951 19.38C164.805 18.9133 165.785 18.68 166.891 18.68C167.971 18.68 168.931 18.9067 169.771 19.36C170.611 19.8133 171.265 20.46 171.731 21.3C172.211 22.14 172.451 23.12 172.451 24.24ZM168.951 23.34C168.951 22.7533 168.751 22.2867 168.351 21.94C167.951 21.5933 167.451 21.42 166.851 21.42C166.278 21.42 165.791 21.5867 165.391 21.92C165.005 22.2533 164.765 22.7267 164.671 23.34H168.951ZM190.156 15.96V30H186.736V21.58L183.596 30H180.836L177.676 21.56V30H174.256V15.96H178.296L182.236 25.68L186.136 15.96H190.156ZM191.935 24.4C191.935 23.2533 192.148 22.2467 192.575 21.38C193.015 20.5133 193.608 19.8467 194.355 19.38C195.102 18.9133 195.935 18.68 196.855 18.68C197.642 18.68 198.328 18.84 198.915 19.16C199.515 19.48 199.975 19.9 200.295 20.42V18.84H203.715V30H200.295V28.42C199.962 28.94 199.495 29.36 198.895 29.68C198.308 30 197.622 30.16 196.835 30.16C195.928 30.16 195.102 29.9267 194.355 29.46C193.608 28.98 193.015 28.3067 192.575 27.44C192.148 26.56 191.935 25.5467 191.935 24.4ZM200.295 24.42C200.295 23.5667 200.055 22.8933 199.575 22.4C199.108 21.9067 198.535 21.66 197.855 21.66C197.175 21.66 196.595 21.9067 196.115 22.4C195.648 22.88 195.415 23.5467 195.415 24.4C195.415 25.2533 195.648 25.9333 196.115 26.44C196.595 26.9333 197.175 27.18 197.855 27.18C198.535 27.18 199.108 26.9333 199.575 26.44C200.055 25.9467 200.295 25.2733 200.295 24.42ZM207.909 17.68C207.309 17.68 206.816 17.5067 206.429 17.16C206.056 16.8 205.869 16.36 205.869 15.84C205.869 15.3067 206.056 14.8667 206.429 14.52C206.816 14.16 207.309 13.98 207.909 13.98C208.496 13.98 208.976 14.16 209.349 14.52C209.736 14.8667 209.929 15.3067 209.929 15.84C209.929 16.36 209.736 16.8 209.349 17.16C208.976 17.5067 208.496 17.68 207.909 17.68ZM209.609 18.84V30H206.189V18.84H209.609ZM216.628 30.16C215.654 30.16 214.788 29.9933 214.028 29.66C213.268 29.3267 212.668 28.8733 212.228 28.3C211.788 27.7133 211.541 27.06 211.488 26.34H214.868C214.908 26.7267 215.088 27.04 215.408 27.28C215.728 27.52 216.121 27.64 216.588 27.64C217.014 27.64 217.341 27.56 217.568 27.4C217.808 27.2267 217.928 27.0067 217.928 26.74C217.928 26.42 217.761 26.1867 217.428 26.04C217.094 25.88 216.554 25.7067 215.808 25.52C215.008 25.3333 214.341 25.14 213.808 24.94C213.274 24.7267 212.814 24.4 212.428 23.96C212.041 23.5067 211.848 22.9 211.848 22.14C211.848 21.5 212.021 20.92 212.368 20.4C212.728 19.8667 213.248 19.4467 213.928 19.14C214.621 18.8333 215.441 18.68 216.388 18.68C217.788 18.68 218.888 19.0267 219.688 19.72C220.501 20.4133 220.968 21.3333 221.088 22.48H217.928C217.874 22.0933 217.701 21.7867 217.408 21.56C217.128 21.3333 216.754 21.22 216.288 21.22C215.888 21.22 215.581 21.3 215.368 21.46C215.154 21.6067 215.048 21.8133 215.048 22.08C215.048 22.4 215.214 22.64 215.548 22.8C215.894 22.96 216.428 23.12 217.148 23.28C217.974 23.4933 218.648 23.7067 219.168 23.92C219.688 24.12 220.141 24.4533 220.528 24.92C220.928 25.3733 221.134 25.9867 221.148 26.76C221.148 27.4133 220.961 28 220.588 28.52C220.228 29.0267 219.701 29.4267 219.008 29.72C218.328 30.0133 217.534 30.16 216.628 30.16Z" fill="white"/>
<path d="M34.1422 5.85781C30.3647 2.08031 25.3422 0 20 0C14.6578 0 9.63531 2.08031 5.85781 5.85781C2.08031 9.63531 0 14.6578 0 20C0 25.3422 2.08039 30.3646 5.85781 34.1422C9.63523 37.9198 14.6578 40 20 40C25.3422 40 30.3647 37.9197 34.1422 34.1422C37.9197 30.3647 40 25.3422 40 20C40 14.6578 37.9196 9.63539 34.1422 5.85781Z" fill="#33CC95"/>
<path d="M16.7421 16.6819C15.669 17.5937 15.2758 19.2567 16.2024 20.5908C17.0695 21.8392 18.1618 22.9313 19.4099 23.798C20.7441 24.7244 22.407 24.3311 23.3187 23.2579L23.3289 23.2626C24.4934 23.8021 25.7304 24.1718 27 24.3603V27L26.9989 27L26.9961 27C19.0215 27.0113 12.9915 20.9111 13 13.0036V13H15.6394L15.6395 13.0012C15.828 14.2706 16.1976 15.5065 16.7371 16.6711L16.7421 16.6819ZM26.9989 29H28C28.5523 29 29 28.5523 29 28V23.4977C29 23.0021 28.637 22.5813 28.1468 22.5086L27.2926 22.3818C26.2123 22.2215 25.1605 21.9069 24.1695 21.4478L23.4166 21.0991C22.9804 20.897 22.462 21.034 22.1826 21.4253L21.8418 21.9024C21.5431 22.3206 20.9728 22.4484 20.5506 22.1552C19.4984 21.4245 18.5761 20.5024 17.845 19.4499C17.5518 19.0277 17.6796 18.4574 18.0978 18.1587L18.5748 17.8181C18.9661 17.5386 19.1031 17.0202 18.901 16.5839L18.5518 15.8303C18.0927 14.8394 17.7782 13.7877 17.6179 12.7075L17.491 11.8532C17.4183 11.363 16.9974 11 16.5019 11H12C11.4477 11 11 11.4477 11 12V13.0014C10.9903 22.0079 17.9102 29.0129 26.9989 29Z" fill="white"/>
</svg>
